<mxfile host="app.diagrams.net" modified="2022-06-02T12:45:00.671Z" agent="5.0 (Windows NT 10.0; Win64; x64) AppleWebKit/537.36 (KHTML, like Gecko) Chrome/100.0.4896.127 Safari/537.36" etag="775l3KNmT8_wLCJFh5gJ" version="18.2.0" type="github">
  <diagram id="N1enLMFXmikRCUz7IDdc" name="Page-1">
    <mxGraphModel dx="1138" dy="633" grid="1" gridSize="10" guides="1" tooltips="1" connect="1" arrows="1" fold="1" page="1" pageScale="1" pageWidth="850" pageHeight="1100" math="0" shadow="0">
      <root>
        <mxCell id="0" />
        <mxCell id="1" parent="0" />
        <mxCell id="ADLXirDZCcImwo5pvHDL-1" value="" style="rounded=1;whiteSpace=wrap;html=1;" parent="1" vertex="1">
          <mxGeometry x="410" y="150" width="120" height="60" as="geometry" />
        </mxCell>
        <mxCell id="ADLXirDZCcImwo5pvHDL-2" value="" style="shape=parallelogram;perimeter=parallelogramPerimeter;whiteSpace=wrap;html=1;fixedSize=1;" parent="1" vertex="1">
          <mxGeometry x="210" y="120" width="120" height="60" as="geometry" />
        </mxCell>
        <mxCell id="ADLXirDZCcImwo5pvHDL-3" value="Actor" style="shape=umlActor;verticalLabelPosition=bottom;verticalAlign=top;html=1;outlineConnect=0;" parent="1" vertex="1">
          <mxGeometry x="150" y="320" width="30" height="60" as="geometry" />
        </mxCell>
        <mxCell id="ADLXirDZCcImwo5pvHDL-4" value="" style="shape=flexArrow;endArrow=classic;html=1;rounded=0;" parent="1" edge="1">
          <mxGeometry width="50" height="50" relative="1" as="geometry">
            <mxPoint x="250" y="280" as="sourcePoint" />
            <mxPoint x="300" y="230" as="targetPoint" />
            <Array as="points">
              <mxPoint x="110" y="150" />
            </Array>
          </mxGeometry>
        </mxCell>
        <mxCell id="ADLXirDZCcImwo5pvHDL-5" value="Vertical Container" style="swimlane;" parent="1" vertex="1">
          <mxGeometry x="320" y="230" width="200" height="200" as="geometry" />
        </mxCell>
        <mxCell id="s45WXXW1T3DFDVomSaJ5-1" value="" style="ellipse;whiteSpace=wrap;html=1;" parent="1" vertex="1">
          <mxGeometry x="640" y="90" width="120" height="80" as="geometry" />
        </mxCell>
        <mxCell id="s45WXXW1T3DFDVomSaJ5-2" value="" style="shape=parallelogram;perimeter=parallelogramPerimeter;whiteSpace=wrap;html=1;fixedSize=1;" parent="1" vertex="1">
          <mxGeometry x="660" y="300" width="120" height="60" as="geometry" />
        </mxCell>
        <mxCell id="s45WXXW1T3DFDVomSaJ5-3" value="" style="shape=tape;whiteSpace=wrap;html=1;" parent="1" vertex="1">
          <mxGeometry x="170" y="510" width="120" height="100" as="geometry" />
        </mxCell>
        <mxCell id="aRlDV6Njx7YrTD5WM0cQ-1" value="" style="shape=step;perimeter=stepPerimeter;whiteSpace=wrap;html=1;fixedSize=1;" vertex="1" parent="1">
          <mxGeometry x="440" y="500" width="120" height="80" as="geometry" />
        </mxCell>
        <mxCell id="aRlDV6Njx7YrTD5WM0cQ-2" value="" style="endArrow=classic;startArrow=classic;html=1;rounded=0;" edge="1" parent="1">
          <mxGeometry width="50" height="50" relative="1" as="geometry">
            <mxPoint x="630" y="520" as="sourcePoint" />
            <mxPoint x="680" y="470" as="targetPoint" />
            <Array as="points">
              <mxPoint x="880" y="390" />
            </Array>
          </mxGeometry>
        </mxCell>
        <mxCell id="aRlDV6Njx7YrTD5WM0cQ-3" value="Control Object" style="ellipse;shape=umlControl;whiteSpace=wrap;html=1;" vertex="1" parent="1">
          <mxGeometry x="90" y="260" width="70" height="80" as="geometry" />
        </mxCell>
        <mxCell id="aRlDV6Njx7YrTD5WM0cQ-4" value="" style="ellipse;html=1;shape=endState;fillColor=#000000;strokeColor=#ff0000;" vertex="1" parent="1">
          <mxGeometry x="395" y="70" width="125" height="60" as="geometry" />
        </mxCell>
        <mxCell id="aRlDV6Njx7YrTD5WM0cQ-5" value="&lt;table style=&quot;border-collapse:&#xa; collapse;width:592pt;mso-yfti-tbllook:1056&quot; width=&quot;1184&quot; cellspacing=&quot;0&quot; cellpadding=&quot;0&quot; border=&quot;0&quot;&gt;&#xa; &lt;colgroup&gt;&lt;col style=&quot;mso-width-source:userset;width:99pt&quot; span=&quot;4&quot; width=&quot;197&quot;&gt;&#xa; &lt;col style=&quot;mso-width-source:userset;width:197pt&quot; width=&quot;395&quot;&gt;&#xa; &lt;/colgroup&gt;&lt;tbody&gt;&lt;tr style=&quot;mso-height-source:userset;height:18.0pt&quot; height=&quot;36&quot;&gt;&#xa;  &lt;td style=&quot;height:57.25pt;&#xa;  width:99pt&quot; width=&quot;197&quot; class=&quot;oa1&quot; height=&quot;115&quot; rowspan=&quot;4&quot;&gt;&#xa;  &lt;p style=&quot;language:zh-CN;margin-top:0pt;margin-bottom:0pt;margin-left:0in;&#xa;  text-align:left;direction:ltr;unicode-bidi:embed;mso-line-break-override:&#xa;  none;word-break:normal;punctuation-wrap:hanging&quot;&gt;&lt;span style=&quot;font-size:12.0pt;&#xa;  font-family:微軟正黑體;mso-ascii-font-family:Calibri;mso-fareast-font-family:微軟正黑體;&#xa;  color:black;mso-color-index:1;mso-font-kerning:12.0pt;language:zh-TW;&#xa;  font-weight:bold;mso-style-textfill-type:solid;mso-style-textfill-fill-themecolor:&#xa;  text1;mso-style-textfill-fill-color:black;mso-style-textfill-fill-alpha:100.0%&quot;&gt;稽核补充&lt;/span&gt;&lt;/p&gt;&#xa;  &lt;/td&gt;&#xa;  &lt;td style=&quot;width:493pt&quot; width=&quot;987&quot; class=&quot;oa2&quot; colspan=&quot;4&quot;&gt;&#xa;  &lt;p style=&quot;language:zh-CN;margin-top:0pt;margin-bottom:0pt;margin-left:0in;&#xa;  text-align:left;direction:ltr;unicode-bidi:embed;mso-line-break-override:&#xa;  none;word-break:normal;punctuation-wrap:hanging&quot;&gt;&lt;/p&gt;&#xa;  &lt;/td&gt;&#xa; &lt;/tr&gt;&#xa; &lt;tr style=&quot;mso-height-source:userset;height:18.0pt&quot; height=&quot;36&quot;&gt;&#xa;  &lt;td style=&quot;height:18.0pt;width:493pt&quot; width=&quot;987&quot; class=&quot;oa2&quot; height=&quot;36&quot; colspan=&quot;4&quot;&gt;&#xa;  &lt;p style=&quot;language:zh-CN;line-height:normal;margin-top:0pt;margin-bottom:&#xa;  0pt;margin-left:0in;margin-right:0in;text-indent:0in;text-align:left;&#xa;  direction:ltr;unicode-bidi:embed;mso-vertical-align-alt:auto;mso-line-break-override:&#xa;  none;word-break:normal;punctuation-wrap:hanging&quot;&gt;&lt;span style=&quot;font-size:12.0pt;&#xa;  font-family:Webdings;mso-ascii-font-family:Calibri;mso-fareast-font-family:&#xa;  微軟正黑體;color:black;mso-color-index:1;mso-font-kerning:12.0pt;language:zh-TW;&#xa;  mso-char-type:symbol;mso-symbol-font-family:Webdings;mso-style-textfill-type:&#xa;  solid;mso-style-textfill-fill-themecolor:text1;mso-style-textfill-fill-color:&#xa;  black;mso-style-textfill-fill-alpha:100.0%&quot;&gt;c&lt;/span&gt;&lt;span style=&quot;font-size:&#xa;  12.0pt;font-family:Calibri;mso-ascii-font-family:Calibri;mso-fareast-font-family:&#xa;  微軟正黑體;color:black;mso-color-index:1;mso-font-kerning:12.0pt;language:zh-TW;&#xa;  mso-style-textfill-type:solid;mso-style-textfill-fill-themecolor:text1;&#xa;  mso-style-textfill-fill-color:black;mso-style-textfill-fill-alpha:100.0%&quot;&gt; &lt;/span&gt;&lt;span style=&quot;font-size:12.0pt;font-family:新細明體;mso-ascii-font-family:Calibri;&#xa;  mso-fareast-font-family:新細明體;mso-ascii-theme-font:minor-latin;mso-fareast-theme-font:&#xa;  minor-fareast;mso-bidi-theme-font:minor-bidi;font-variant:normal;color:#353630;&#xa;  text-transform:none;letter-spacing:0pt;mso-font-kerning:12.0pt;language:zh-TW;&#xa;  font-weight:normal;font-style:normal;mso-no-proof:no;vertical-align:baseline;&#xa;  mso-text-raise:0%;mso-style-textoutline-type:none;mso-style-textfill-type:&#xa;  solid;mso-style-textfill-fill-color:#353630;mso-style-textfill-fill-alpha:&#xa;  100.0%&quot;&gt;异常&lt;/span&gt;&lt;span style=&quot;font-size:12.0pt;font-family:Calibri;&#xa;  mso-ascii-font-family:Calibri;mso-fareast-font-family:新細明體;mso-ascii-theme-font:&#xa;  minor-latin;mso-fareast-theme-font:minor-fareast;mso-bidi-theme-font:minor-bidi;&#xa;  font-variant:normal;color:#353630;text-transform:none;letter-spacing:0pt;&#xa;  mso-font-kerning:12.0pt;language:en-US;font-weight:normal;font-style:normal;&#xa;  mso-no-proof:no;vertical-align:baseline;mso-text-raise:0%;mso-style-textoutline-type:&#xa;  none;mso-style-textfill-type:solid;mso-style-textfill-fill-color:#353630;&#xa;  mso-style-textfill-fill-alpha:100.0%&quot;&gt;:&lt;/span&gt;&lt;span style=&quot;font-size:12.0pt;&#xa;  font-family:Calibri;mso-ascii-font-family:Calibri;mso-fareast-font-family:&#xa;  新細明體;mso-ascii-theme-font:minor-latin;mso-fareast-theme-font:minor-fareast;&#xa;  mso-bidi-theme-font:minor-bidi;font-variant:normal;color:#353630;text-transform:&#xa;  none;letter-spacing:0pt;mso-font-kerning:12.0pt;language:zh-TW;font-weight:&#xa;  normal;font-style:normal;mso-no-proof:no;vertical-align:baseline;mso-text-raise:&#xa;  0%;mso-style-textoutline-type:none;mso-style-textfill-type:solid;mso-style-textfill-fill-color:&#xa;  #353630;mso-style-textfill-fill-alpha:100.0%&quot;&gt;&lt;span style=&quot;mso-spacerun:yes&quot;&gt;&amp;nbsp; &lt;/span&gt;&lt;/span&gt;&lt;/p&gt;&#xa;  &lt;/td&gt;&#xa; &lt;/tr&gt;&#xa; &lt;tr style=&quot;mso-height-source:userset;height:10.63pt&quot; height=&quot;21&quot;&gt;&#xa;  &lt;td style=&quot;height:10.63pt;width:493pt&quot; width=&quot;987&quot; class=&quot;oa2&quot; height=&quot;21&quot; colspan=&quot;4&quot;&gt;&#xa;  &lt;p style=&quot;language:zh-CN;line-height:normal;margin-top:0pt;margin-bottom:&#xa;  0pt;margin-left:0in;margin-right:0in;text-indent:0in;text-align:left;&#xa;  direction:ltr;unicode-bidi:embed;mso-vertical-align-alt:auto;mso-line-break-override:&#xa;  none;word-break:normal;punctuation-wrap:hanging&quot;&gt;&lt;span style=&quot;font-size:12.0pt;&#xa;  font-family:Webdings;mso-ascii-font-family:Calibri;mso-fareast-font-family:&#xa;  微軟正黑體;color:black;mso-color-index:1;mso-font-kerning:12.0pt;language:zh-TW;&#xa;  mso-char-type:symbol;mso-symbol-font-family:Webdings;mso-style-textfill-type:&#xa;  solid;mso-style-textfill-fill-themecolor:text1;mso-style-textfill-fill-color:&#xa;  black;mso-style-textfill-fill-alpha:100.0%&quot;&gt;c&lt;/span&gt;&lt;span style=&quot;font-size:&#xa;  12.0pt;font-family:Calibri;mso-ascii-font-family:Calibri;mso-fareast-font-family:&#xa;  微軟正黑體;color:black;mso-color-index:1;mso-font-kerning:12.0pt;language:zh-TW;&#xa;  mso-style-textfill-type:solid;mso-style-textfill-fill-themecolor:text1;&#xa;  mso-style-textfill-fill-color:black;mso-style-textfill-fill-alpha:100.0%&quot;&gt;&#xa;  重要信息&lt;/span&gt;&lt;span style=&quot;font-size:12.0pt;font-family:Calibri;mso-ascii-font-family:&#xa;  Calibri;mso-fareast-font-family:微軟正黑體;color:black;mso-color-index:1;&#xa;  mso-font-kerning:12.0pt;language:en-US;mso-style-textfill-type:solid;&#xa;  mso-style-textfill-fill-themecolor:text1;mso-style-textfill-fill-color:black;&#xa;  mso-style-textfill-fill-alpha:100.0%&quot;&gt;:&lt;/span&gt;&lt;span style=&quot;font-size:12.0pt;&#xa;  font-family:Calibri;mso-ascii-font-family:Calibri;mso-fareast-font-family:&#xa;  微軟正黑體;color:black;mso-color-index:1;mso-font-kerning:12.0pt;language:zh-TW;&#xa;  mso-style-textfill-type:solid;mso-style-textfill-fill-themecolor:text1;&#xa;  mso-style-textfill-fill-color:black;mso-style-textfill-fill-alpha:100.0%&quot;&gt; &lt;/span&gt;&lt;/p&gt;&#xa;  &lt;/td&gt;&#xa; &lt;/tr&gt;&#xa; &lt;tr style=&quot;mso-height-source:userset;height:10.63pt&quot; height=&quot;21&quot;&gt;&#xa;  &lt;td style=&quot;height:10.63pt;width:493pt&quot; width=&quot;987&quot; class=&quot;oa2&quot; height=&quot;21&quot; colspan=&quot;4&quot;&gt;&#xa;  &lt;p style=&quot;language:zh-CN;margin-top:0pt;margin-bottom:0pt;margin-left:0in;&#xa;  text-align:left;direction:ltr;unicode-bidi:embed;mso-line-break-override:&#xa;  none;word-break:normal;punctuation-wrap:hanging&quot;&gt;&lt;/p&gt;&#xa;  &lt;/td&gt;&#xa; &lt;/tr&gt;&#xa;&lt;/tbody&gt;&lt;/table&gt;" style="text;whiteSpace=wrap;html=1;" vertex="1" parent="1">
          <mxGeometry x="120" y="400" width="550" height="430" as="geometry" />
        </mxCell>
      </root>
    </mxGraphModel>
  </diagram>
</mxfile>
